<svg width="400" height="400" xmlns="http://www.w3.org/2000/svg">
  <!-- Background -->
  <rect width="400" height="400" fill="#f8f9fa"/>
  
  <!-- Portrait Background -->
  <rect width="400" height="400" fill="#e9ecef"/>
  
  <!-- Head -->
  <circle cx="200" cy="160" r="100" fill="#adb5bd"/>
  
  <!-- Body/Suit -->
  <path d="M120,280 L200,220 L280,280 L300,400 L100,400 Z" fill="#495057"/>
  
  <!-- Shirt Collar -->
  <path d="M180,250 L200,280 L220,250 L200,220 Z" fill="#f8f9fa"/>
  
  <!-- Glasses -->
  <path d="M150,140 L180,140 M220,140 L250,140" stroke="#343a40" stroke-width="3"/>
  <circle cx="165" cy="140" r="15" fill="none" stroke="#343a40" stroke-width="3"/>
  <circle cx="235" cy="140" r="15" fill="none" stroke="#343a40" stroke-width="3"/>
  
  <!-- Face Features (simplified) -->
  <ellipse cx="165" cy="140" rx="5" ry="8" fill="#343a40"/>
  <ellipse cx="235" cy="140" rx="5" ry="8" fill="#343a40"/>
  <path d="M180,180 Q200,190 220,180" fill="none" stroke="#343a40" stroke-width="5" stroke-linecap="round"/>
  
  <!-- Name Tag -->
  <rect x="100" y="320" width="200" height="40" fill="#ffffff" rx="5" ry="5"/>
  <text x="200" y="345" font-family="Arial" font-size="16" font-weight="bold" fill="#212529" text-anchor="middle">CTO</text>
</svg>
