<svg width="600" height="600" xmlns="http://www.w3.org/2000/svg">
  <path d="M0,100 C50,150 100,50 150,100 S250,150 300,100 S400,50 450,100 S550,150 600,100" stroke="#ffffff" stroke-width="15" fill="none" opacity="0.4"/>
  <path d="M0,200 C50,250 100,150 150,200 S250,250 300,200 S400,150 450,200 S550,250 600,200" stroke="#ffffff" stroke-width="15" fill="none" opacity="0.3"/>
  <path d="M0,300 C50,350 100,250 150,300 S250,350 300,300 S400,250 450,300 S550,350 600,300" stroke="#ffffff" stroke-width="15" fill="none" opacity="0.2"/>
  <circle cx="80" cy="400" r="50" fill="#ffffff" opacity="0.2"/>
  <circle cx="200" cy="450" r="70" fill="#ffffff" opacity="0.3"/>
  <circle cx="350" cy="500" r="40" fill="#ffffff" opacity="0.2"/>
  <circle cx="500" cy="420" r="60" fill="#ffffff" opacity="0.25"/>
</svg>